Coordinates
version=1
nRows=14
nColumns=24
inDegrees=yes

Units are S.I. units (second, meters, Newtons, ...)
Angles are in degrees.

endheader
time	pelvis_tilt	pelvis_list	pelvis_rotation	pelvis_tx	pelvis_ty	pelvis_tz	hip_flexion_r	hip_adduction_r	hip_rotation_r	knee_angle_r	ankle_angle_r	subtalar_angle_r	mtp_angle_r	hip_flexion_l	hip_adduction_l	hip_rotation_l	knee_angle_l	ankle_angle_l	subtalar_angle_l	mtp_angle_l	lumbar_extension	lumbar_bending	lumbar_rotation
      4.13000000	      5.67258178	     -0.15807889	      6.91172382	     -0.96649619	      0.91514138	      0.21927782	    -14.33877260	      5.82102089	      1.27179126	     -2.62179886	     24.09807061	     -1.96940883	      0.00000000	     23.38833812	     -0.44737190	     -8.36046705	    -43.68320891	     16.71992451	      3.90481782	      0.00000000	    -23.12220203	      6.50332828	     -5.72185689
      4.14000000	      5.62460388	     -0.13886936	      7.07167837	     -0.95267767	      0.91315573	      0.21873421	    -16.00298881	      5.97583471	      1.16116230	     -1.26158504	     24.14231403	     -2.27723912	      0.00000000	     23.57035472	      0.05926912	     -8.10118498	    -39.80553773	     16.95526114	      4.19165742	      0.00000000	    -23.26089019	      6.41788785	     -5.41819723
      4.15000000	      5.58786824	     -0.13133057	      7.24332233	     -0.93875840	      0.91089695	      0.21809102	    -17.66170101	      6.14456886	      1.07495784	      0.03428129	     24.17138420	     -2.55728850	      0.00000000	     23.52983899	      0.61705212	     -7.58517345	    -35.59576093	     17.02689125	      4.37611265	      0.00000000	    -23.39593732	      6.34855517	     -5.14260338
      4.16000000	      5.58115725	     -0.11449294	      7.40833415	     -0.92472774	      0.90843449	      0.21736267	    -19.31781921	      6.29761326	      0.96660511	      1.23095033	     24.22115090	     -2.70602547	      0.00000000	     23.22987230	      1.22997495	     -6.75275629	    -31.06012674	     16.86136446	      4.39890123	      0.00000000	    -23.55240696	      6.27503044	     -4.91247714
      4.17000000	      5.67503899	     -0.07986354	      7.47800653	     -0.91056361	      0.90591120	      0.21663389	    -21.02465550	      6.39834623	      0.97454715	      2.28144834	     24.26987143	     -2.77959245	      0.00000000	     22.56063873	      1.86422133	     -5.52414924	    -26.19200964	     16.42999397	      3.94566542	      0.00000000	    -23.82859306	      6.16930761	     -4.60293231
      4.18000000	      5.83132745	     -0.06130588	      7.43602951	     -0.89623858	      0.90330118	      0.21591724	    -22.71521268	      6.46022940	      1.12364561	      3.15139230	     24.26542481	     -2.87676441	      0.00000000	     21.56440119	      2.46847411	     -3.67088800	    -21.03646253	     15.52667798	      2.58879111	      0.00000000	    -24.16357761	      6.05753466	     -4.17787252
      4.19000000	      6.10351540	     -0.01350614	      7.28107343	     -0.88163868	      0.90069121	      0.21524416	    -24.47626304	      6.43821954	      1.38212589	      3.87233047	     24.30451844	     -2.83789503	      0.00000000	     20.16347667	      3.01008856	     -1.04219721	    -15.64875361	     13.93417327	      0.04791089	      0.00000000	    -24.59722901	      5.89311182	     -3.75362495
      4.20000000	      6.51713949	     -0.03794537	      6.94464455	     -0.86673995	      0.89810812	      0.21476852	    -26.26916691	      6.40957926	      1.76731448	      4.35471988	     24.38069196	     -2.68609324	      0.00000000	     18.33921194	      3.26967377	      2.62765172	    -10.12410945	     11.37097540	     -4.30456918	      0.00000000	    -25.15507496	      5.74904396	     -3.12780243
      4.21000000	      7.03463899	     -0.18789473	      6.46798228	     -0.85149625	      0.89547681	      0.21459067	    -28.03997645	      6.43993296	      2.23989572	      4.58073076	     24.49256587	     -2.40189254	      0.00000000	     16.30153168	      3.05015121	      6.95751517	     -4.82299738	      7.85712393	    -10.16658706	      0.00000000	    -25.76180037	      5.66320631	     -2.35218248
      4.22000000	      7.55254691	     -0.46169221	      5.92908177	     -0.83602354	      0.89279611	      0.21470913	    -29.66146813	      6.55065990	      2.72582089	      4.53700630	     24.58952115	     -1.99901455	      0.00000000	     14.56968349	      2.39401427	     10.32109397	     -0.44967549	      4.55643756	    -15.23326557	      0.00000000	    -26.31091501	      5.63113181	     -1.51639437
      4.23000000	      8.04455955	     -0.68743836	      5.39908509	     -0.82042682	      0.89030645	      0.21489604	    -31.11389478	      6.59721594	      3.13303523	      4.22776670	     24.64823832	     -1.57090834	      0.00000000	     13.30708355	      1.77774663	     11.72869564	      2.67383057	      2.41733369	    -17.91803165	      0.00000000	    -26.81131781	      5.51367440	     -0.76944698
      4.24000000	      8.52742181	     -0.72320953	      4.89291258	     -0.80460067	      0.88816533	      0.21495332	    -32.45664909	      6.44611793	      3.42826926	      3.70186354	     24.60732300	     -1.16719951	      0.00000000	     12.33601602	      1.52447013	     11.87813795	      4.67397631	      1.27171451	    -18.98377940	      0.00000000	    -27.27187302	      5.18810459	     -0.20245106
      4.25000000	      9.01216144	     -0.54088498	      4.45600970	     -0.78851047	      0.88640705	      0.21478118	    -33.70135149	      6.10151603	      3.60926702	      2.96049618	     24.47642408	     -0.87371221	      0.00000000	     11.57366442	      1.69715017	     11.41981961	      5.61737440	      0.84651828	    -19.07062910	      0.00000000	    -27.69953200	      4.65232886	      0.15775122
      4.26000000	      9.47303991	     -0.17257374	      4.13141784	     -0.77207965	      0.88495601	      0.21432351	    -34.80787450	      5.63023245	      3.48964990	      1.99182630	     24.15585022	     -0.57913300	      0.00000000	     10.98214339	      2.21790380	     11.05740790	      5.64121721	      0.52926558	    -19.23107797	      0.00000000	    -28.04524098	      3.95924676	      0.29117670
